<?xml version="1.0" encoding="UTF-8"?>
<svg id="Layer_1" data-name="Layer 1" xmlns="http://www.w3.org/2000/svg" viewBox="0 0 102.42 129.61">
  <defs>
    <style>
      .cls-1 {
        fill: #b5121b;
      }

      .cls-2 {
        fill: #b0b7bc;
      }

      .cls-3 {
        fill: #fff;
      }
    </style>
  </defs>
  <path class="cls-2" d="M102.42,42.66v9.48c0,17.66-8.68,56.67-51.18,77.47C8.68,108.86,0,69.8,0,52.14v-9.48h102.42Z"/>
  <path class="cls-1" d="M51.23,0s33.42-.5,51.18,6.54v36.12H0V6.54C17.81-.44,51.23,0,51.23,0"/>
  <path class="cls-3" d="M11.12,10.58c-.1,0-.2.05-.25.05.05-.1.15-.2.3-.3.2-.2.5-.35.9-.35.3,0,.7.1,1.15.45-.05.05-.15.1-.2.15-.15.1-.25.2-.35.35-.15-.15-.5-.35-1.05-.35-.2-.05-.35-.05-.5,0ZM12.17,13.68c-.25-.1-.5-.1-.7-.1-.55,0-.9.25-1.1.55-.15.2-.25.4-.3.6.05-.05.15-.1.2-.15.4-.25.75-.3,1.05-.3.2,0,.35.05.45.05.15-.35.35-.55.4-.65t0,0ZM12.52,11.93s-.05.1-.05.1h0v.05s-.05.1-.05.2c0,.15.05.3.3.45.3.15.85.55,1.3.85.15-.45.4-.8.75-1.15l-.7-1.35h0v-.05l-.05-.1s-.15-.1-.25-.1-.2.05-.35.15c-.45.35-.75.75-.9.95ZM15.07,35.08c-.15.3-.2.65-.2.9v.05s.05-.1.1-.15c.25-.5.7-.75,1-.9-.05-.2-.1-.45-.15-.65-.35.2-.6.45-.75.75ZM16.41,18.91c.65.55,1.05.7,1.25.7.15,0,.25-.05.35-.2.05-.1.15-.2.25-.35s.1-.3.1-.45c0-.3-.1-.65-.2-.8h0c-.05-.15-1.55-3.54-1.95-4.89-.05-.2-.05-.4-.1-.5l-.05-.05h-.1c-.1,0-.25.05-.4.15-.9.55-1.25,1.35-1.25,2.24.05,1.6,1.25,3.49,2.1,4.14ZM13.82,14.43v-.2c0-.1-.55-.3-.6-.3-.2-.05-.45-.05-.65.15-.15.2-.45.65-.45,1.05,0,.15.05.3.15.4s.25.2.5.3c.45.15.9.25,1.3.4-.15-.5-.25-1-.25-1.5,0-.1,0-.2,0-.3ZM16.16,8.89h.15c.25,0,.45.1.6.15-.05-.65-.3-1-.6-1.25-.3-.25-.65-.3-.95-.3h-.2s.15.1.2.15c.6.5.75,1,.8,1.25ZM14.87,10.73c.05.2.1.45.2.65,0,.05.25.65.2.65.05,0,.05-.05.1-.05h0c.2-.1.45-.2.65-.2.1,0,.2,0,.3.05.05-.2.15-.4.25-.65.1-.3.2-.55.2-.7v-.35c0-.15,0-.35-.1-.45-.05-.1-.15-.2-.4-.2-.1,0-.2,0-.3.05-.35.1-.85.2-1.05.55-.15.2-.1.4-.05.65h0ZM20.9,11.38c.35-.45.45-.85.45-1.15,0-.35-.15-.65-.35-.9-.1-.15-.25-.25-.3-.3,0,.05.05.15.05.25.05.15.05.3.05.45,0,.55-.25.9-.35,1.05.15.2.3.4.45.6ZM32.43,9.09h0c0-.2.15-.45.25-.6.15-.2.4-.45.3-.7-.05-.15-.25-.25-.25-.45,0-.1.05-.2.15-.25.1-.1.25-.15.4-.2.45-.15,1.85-.65,1.85-.65.15-.15.2-.25.35-.4s.45-.3,1.05-.4c1.45-.3,5.44-.55,5.79-.6.1,0,.25.05.45.2.25.2.5.5.7.75.1.1.2.25.25.3.05.1.1.15.1.15l.05.1.05-.05s.05-.05.15-.05.2-.05.3-.05c.15,0,.35.05.5.15.15.1.3.3.4.65.05.15.05.35.05.5,0,.95-.65,1.9-1.1,2.39l-.05.05.05.05c1.5,2.2,1.75,4.19,1.75,4.84-.2-.25-.45-.7-.45-.7,0,0-.05-.05-.1-.15-.05-.05-.15-.15-.25-.2h-.1s-.15,0-.2.1c-.05.05-.1.15-.1.2,0,.1,0,.2.05.3.65,1.9.75,3.89.75,4.99v.1c-.25-.4-.65-1.05-.65-1.05-.1-.2-.25-.3-.4-.3-.1,0-.15.05-.2.1-.05.05-.05.15-.05.2s0,.1.05.15c.35.9.45,1.75.45,2.49,0,1.05-.2,1.9-.45,2.54-.1.3-.2.55-.3.75,0,.05-.05.1-.05.15-.05-.1-.1-.2-.2-.35-.15-.25-.35-.6-.45-.85-.05-.1-.1-.2-.15-.3-.05-.05-.15-.1-.2-.1-.1,0-.15.05-.2.1-.05.05-.05.15-.05.25v.65c0,1.75-.7,2.99-1.4,3.74-.35.4-.7.7-.95.85-.1.1-.2.15-.3.2v-2.49c0-.1-.05-.2-.1-.3-.05-.05-.1-.15-.2-.15-.05,0-.1,0-.15.05s-.1.1-.1.15c-.5,1.15-1,1.8-1.45,2.2-.45.35-.8.45-1.1.45-.15,0-.25,0-.3-.05.05-.1.15-.25.25-.45.15-.35.3-.75.3-1.15,0-.3-.1-.55-.3-.75-.2-.2-.55-.3-1.1-.3-.15,0-.3,0-.5.05-1.2.15-2.84.9-4.24,1.6-1.15.6-2.15,1.2-2.39,1.35-.3-.6-.4-1.1-.4-1.6,0-.7.2-1.25.45-1.65.1-.2.2-.35.3-.45.05-.05.05-.1.1-.1l.05-.05s.05-.05.1-.1c.05-.05.1-.15.1-.25,0-.05-.05-.15-.1-.2-.05-.05-.15-.05-.25-.05-.6.05-1.05.25-1.4.5-.25.15-.4.3-.55.45.1-1.9.75-3.09,1.5-3.89s1.55-1.15,1.75-1.2c.15-.05.25-.1.3-.2.05-.05.1-.15.1-.2v-.1s-.05-.1-.1-.15c-.1-.1-.3-.1-.3-.1,0,0-.45-.1-.85-.2-.2-.05-.45-.1-.6-.15-.05,0-.1-.05-.15-.05,1.25-1.55,3.04-1.8,3.99-1.8h.9c.15,0,.25-.05.35-.1.1-.05.15-.15.15-.25s-.05-.2-.1-.2c-.05-.05-.1-.05-.1-.05h-.05s-.25-.15-.7-.4c-.15-.1-.25-.15-.3-.2-.05-.05-.05-.1-.05-.1v-.05c.1,0,.3,0,.5.05.3,0,.65.05.75.1.45.15.85.25,1.2.25.65,0,1.15-.25,1.45-.6.3-.3.5-.65.6-.85.1-.15.15-.3.15-.45,0-.3-.15-.5-.4-.55-.15-.05-.35-.1-.65-.1s-.65.05-.95.35c-.2.2-.35.25-.45.25-.05,0-.1,0-.15-.05h-.05l-.6-.55c-.25-.05-.4-.15-.5-.2-.1-.05-.1-.1-.1-.1l.05-.05s.05-.05.1-.05c.35-.2.5-.25.8-.25s.7.05,1.4.05h.4c.55,0,.85-.2,1.05-.45.2-.25.25-.55.25-.8,0-.35-.1-.6-.1-.6,0,0-.35-1.05-1.1-2.2-.2-.35-.5-.45-.75-.45-.4,0-.8.25-1.1.45-.3.2-.5.45-.5.45-.25.25-.5.3-.75.3s-.5-.1-.7-.3c-.1-.1-.2-.35-.25-.6ZM36.27,7.04c.2.1.4.2.55.3l.05.05.05-.05s.2-.2.45-.4c.1-.1.5-.35.45-.5-.05-.25-1.15.05-1.3.1s-.3.1-.35.15c-.05,0-.1.05-.1.05l-.05.05c-.2.2.2.25.25.25ZM16.81,12.78c.25,1,1.2,3.19,1.65,4.24.15.35.25.55.25.55,0,0,.25.5.25,1.05,0,.25-.05.55-.2.8-.2.35-.4.55-.4.6h0v.05s-.05.05-.05.1c-.05.1-.1.25-.1.4s.05.4.2.65c0,0,.2.3.4.65.2.35.45.75.6.95.05.05.1.15.15.2.05.05.1.1.1.1v-.05s.05-.15.05-.35v-.15c0-.2,0-.5.05-.7,0-.2.15-.3.3-.3.1,0,.25.1.3.25s.1.45.2.75h0s0,.05.05.1c0,.05.05.15.1.25.1.2.25.5.45.8.35.6.95,1.2,1.7,1.55v-1.25s.1-.1.15-.1h0s.1.05.15.05c.05.05.1.05.1.1.05.05.05.1.1.1h0l.05.05s.05.05.1.15c.05.1.2.25.3.45.25.4.65.9,1.1,1.4.85.95,1.9,1.85,2.84,2.05-.05-.25-.1-.55-.1-.8,0-.55.1-1.05.3-1.55-.1.1-.2.15-.3.2l-1.35,1.15.05-1.75c.1-1.8.65-3.24,1.7-4.39.35-.35.7-.65,1.1-.9-.15-.05-.3-.05-.4-.1-.05,0-.15-.05-.2-.05l-.4-.1c-2.34-.35-5.74-1.35-8.93-4.39-.4-.35-.8-.95-.8-1.65,0-.35.1-.7.4-1.05.25-.35.7-.65,1.35-.85h.05l.1-.05s.1-.1.1-.15c0-.1-.1-.35-.5-.65-.5-.4-.9-.7-1.15-.9s-.35-.25-.35-.25h0s-.15,0-.3.2c-.3.3-1.3,1.1-1.3,2.15-.05.05-.05.2,0,.4ZM20.4,30.54h0v-.1c0-.1-.05-.25-.25-.4s-.4-.3-.55-.45c-.15-.1-.2-.2-.25-.2h-.1s-.15,0-.3.1c-.05,0-.05.05-.15.05-.05.05-.15.1-.25.15-.2.1-.45.25-.7.45.05.05.1.1.15.15.3.35.8.8,1.4,1.1.25.1.55.2.8.25,0-.1-.05-.25-.05-.35.1-.4.25-.75.25-.75h0ZM16.26,30.34c-.5,0-.85.2-1.1.4-.15.1-.25.25-.35.35.05,0,.1-.05.15-.05.25-.1.5-.15.75-.15.2,0,.4.05.55.1.1-.2.25-.4.45-.55-.15-.05-.3-.1-.45-.1ZM19.51,27.74c-.3-.2-.6-.25-.85-.3.05.05.1.05.15.1.6.45.75.95.75,1.25t.1.05h.05l.05.05h0s.3.25.6.5c-.05-.9-.45-1.35-.85-1.65ZM81.96,32.18h0c.15-.05.25-.2.4-.35.05-.05.1-.1.2-.15-.3-.15-.6-.2-.85-.2-.45,0-.8.2-1.1.4-.15.1-.25.2-.35.3.05,0,.1-.05.15-.05.25-.1.5-.15.7-.15.4,0,.7.15.85.2h0ZM81.86,33.48c0,.35.25.75.45,1,.15.2.4.25.65.3s.5.1.75.1c.2,0,.75-.1.55-.4-.1-.15-.25-.25-.35-.45s-.2-.4-.25-.6c-.1-.3-.15-.6-.2-.9,0-.1-.05-.2-.1-.3-.05-.1-.15-.15-.25-.15-.05,0-.15.05-.3.2-.5.5-.6.6-.75.8-.2.1-.2.25-.2.4ZM79.62,36.28c-.2.35-.25.75-.25,1v.05s.05-.1.1-.15c.4-.7.9-.9,1.15-.95,0-.1-.05-.2-.05-.3,0-.15,0-.25.05-.4v-.05c-.5.2-.8.5-1,.8ZM53.03,31.14h.8c-.2-.55-.5-.9-.8-1.1-.35-.2-.7-.3-1-.3h-.25s.1.05.15.05c.75.35,1,.85,1.05,1.1h0l.05.25ZM83.91,37.67s-.1-.1-.15-.2c-.25.4-.35.75-.35,1.1,0,.6.35,1.05.6,1.3,0-.05-.05-.1-.05-.15-.05-.2-.05-.4-.05-.55,0-.5.15-.8.3-.95h0l.1-.15-.05-.05c-.1-.15-.2-.3-.35-.35ZM88.15,37.82h0l-.05-.15h-.75c.2.6.5.95.8,1.15.35.2.75.25,1.05.25h.05s-.1-.05-.15-.1c-.65-.35-.9-.9-.95-1.15ZM18.81,36.62c-.45.4-.55.9-.55,1.3,0,.2.05.4.05.55,0-.05.05-.1.05-.15.15-.55.5-.9.75-1.1-.05-.1-.15-.25-.25-.35,0-.1-.05-.15-.05-.25ZM47.79,31.74c-.5,0-.9.25-1.15.4h.4c.25,0,.5.05.7.1.15-.2.3-.3.45-.45-.15-.05-.3-.05-.4-.05ZM48.44,34.03v.1q0,.1.1.15c.1.05.25.1.55.1h.4c.2,0,.3,0,.4-.05.05-.1.05-.2.1-.3.05-.2.15-.4.15-.6.05-.2.05-.35.05-.5v-.35c-.2-.2-.5-.5-.65-.6-.1-.05-.2-.15-.35-.15-.1,0-.25.05-.4.15-.15.1-.3.2-.45.35-.1.1-.2.25-.2.35,0,.05,0,.15.1.25.2.3.25.55.25.75-.05.2-.05.3-.05.35ZM89.35,35.03c-.1-.15-.15-.3-.15-.45,0-.4.25-.7.45-1,.05-.05.05-.1.1-.1.2-.3.3-.65.3-1.05,0-.5-.2-1.15-.85-1.85,0,0-.15-.15-.15-.5,0-.25.05-.65.3-1.25.2-.5.4-.95.4-1.4,0-.2-.05-.45-.2-.7-.1.4-.2,1.25-.75,1.2-.4,0-.35-.5-.35-.8,0-.05,0-.15.05-.25.05-.2.05-.5.05-.85,0-.5-.05-1.05-.25-1.6-.1.35-.15.6-.3.75-.05.05-.15.1-.2.1-.1,0-.2-.05-.25-.15s-.1-.15-.15-.25c-.05-.2-.05-.35-.1-.35,0,0-.05-.45-.2-.9-.1-.45-.25-.95-.35-1.2,0,.15-.05.35-.1.55-.05.25-.1.6-.4.7-.2.05-.3-.15-.3-.35-.05-.2-.1-.45-.15-.65-.1-.35-.2-.75-.35-1.1-.05-.2-.15-.3-.2-.35,0,.05-.05.1-.05.15-.05.15-.15.3-.3.5-.25.4-.6.9-1.05,1.25-.9.7-1.65.75-2.24.75-.9,0-2.44-.3-3.79-1.15-.75-.5-2.05-1.25-2.89-1.85l-.2-.15h1.2c1.3,0,2.69-.15,3.59-.6,1.15-.55,1.7-1.3,2.24-2s1.05-1.45,2.05-2c.6-.35,1.25-.45,1.85-.45.7,0,1.3.15,1.55.25-.25-.9-1.3-1.7-2.59-1.7-.95,0-1.95.4-2.89,1.45l-.15.15v-.35c0-.1-.05-.25-.05-.4-.1-.35-.25-.8-.55-1.25-.65-.9-1.9-1.8-4.44-1.8h-.65c-2.1.1-5.99,1.35-9.58,2.05-3.49.7-8.68,1-10.88,1-.85,0-1.65-.1-2.39-.25-.7-.15-1.3-.45-1.7-.85-.25-.3-.4-.6-.4-1,0-.8.45-1.3,1-1.55s1.25-.3,1.75-.3c1.7,0,4.04,1.05,5.94,1.75,1.35.5,2.64.5,3.39.5,1.95,0,4.44-1.05,5.69-1.55,1-.4,1.85-.7,3.29-.7.35,0,.75,0,1.15.05-.55-.6-1.7-1.2-3.19-1.2-.95,0-2.1.25-3.24.9l-.1.05-.05-.1c-.05-.1-.1-.2-.1-.35,0-.3.15-.65.45-1,.25-.3.6-.55,1.05-.7-.3-.15-.75-.35-1.4-.45-.75-.15-1.65-.3-2.64-.3h-.35c-1.65.05-2.74.45-3.79.85-1.1.4-2.15.8-3.69.8h-1.35c-1.5,0-2.84.2-3.84.65-1,.5-1.6,1.25-1.6,2.39,0,1,.6,1.85,1.7,2.49,1.1.6,2.69.95,4.64.95h.1c4.89-.05,10.78-1.2,14.37-1.8,1.2-.2,3.69-.9,5.84-.9,1,0,1.9.15,2.54.55.7.4,1.1,1.1,1.1,2.1,0,.5-.1,1.15-.55,1.65-.45.5-1.2.9-2.44.9-1.45,0-3.09-.4-5.09-.7h-.15c-.4-.05-.85-.1-1.35-.2-2.89-.35-6.63-.6-8.73-.6h-.55c-1.6.05-4.69.25-7.63.7-3.04.5-5.84,1.15-6.73,1.35v.1l-.05,2.79-.8-1.25v.15c0,1.15-.25,2.15-.45,2.79-.15.35-.25.65-.35.8-.05.05-.05.1-.05.15l-.65,1.25-.6-1c-.2,1.2-.7,2.24-1.5,3.14-.2.2-.55.55-1,.9t-.1.1c-.15.1-.25.2-.35.25l-1.2.7v-2.1c-.25.3-.5.6-.75.8-.5.45-1.05.65-1.6.65-.2,0-.35-.05-.55-.1l-1-.3.55-.85s.15-.2.2-.4c.2-.4.25-.65.25-.8,0-.05,0-.1-.05-.15s-.25-.1-.55-.1c-.15,0-.25,0-.4.05-.6.05-1.8.4-3.99,1.55-1.15.6-2.24,1.25-3.34,1.9-.7.45-1.4.85-2.15,1.2-1.05.55-2.15,1.05-3.29,1.2-.3.05-.65.1-.95.1-.5,0-.95-.15-1.2-.45-.5-.05-.95-.15-1.35-.35-.45-.25-.85-.55-1.15-.8-.25-.2-.4-.45-.55-.6-.55.5-1.05,1.15-1.15,2v.9h.3c2.24,0,3.49-.35,3.59-.35h.1c.15,0,.25.1.3.2v.1c0,.15-.1.25-.2.3,0,0-1.35.4-3.74.4h-.25c.05.65.25,1.25.5,1.65.35.55.85.7,1.05.7h.05c1.85-1.3,3.04-1.7,3.09-1.7h.1c.15,0,.25.1.3.2v.1c0,.1-.1.25-.2.3h-.05s-.1.05-.25.1c-.2.1-.5.2-.85.4-.25.15-.5.3-.8.45v.05s0,.1.1.25c.25.4.55.9.75,1.2.15.2.4.45.75.45.3,0,.7-.2,1.15-.85.3-.35.65-.65,1.35-.65l1.65-.1h.15s.15-.05.3-.05c.2-.1.5-.2.65-.45.1-.15.25-.3.35-.35.15-.1.3-.1.45-.1.3,0,.6.1,1.1.2.7.2,1.25.3,1.65.3.1,0,.2,0,.3-.05-.05-.05-.1-.1-.2-.2-.15-.15-.35-.35-.45-.5-.1-.1-.15-.25-.15-.35,0-.05,0-.15.05-.2.1-.1.2-.15.3-.15s.2.05.25.1.15.1.15.15c.7.5,2,.85,3.04.85.3,0,.55,0,.8-.1-.2-.1-.45-.25-.6-.45-.1-.1-.15-.2-.15-.35,0-.05.05-.15.1-.2.1-.1.2-.1.35-.1.3,0,.7.1.75.1,0,0,.05,0,.2.05.1,0,.3.05.5.1.4.05.95.15,1.45.15.55,0,1.05-.1,1.35-.3-.55-.5-.9-.85-.9-.85,0,0-.15-.1-.15-.3,0-.05,0-.15.1-.25.05-.1.2-.1.25-.1.2,0,.4.1.45.15,0,0,.1.05.25.1s.35.1.6.2c.5.15,1.15.25,1.75.25.5,0,1-.1,1.35-.35-.4-.15-.65-.4-.65-.4,0,0-.1-.1-.1-.25,0-.05,0-.1.05-.2.05-.1.15-.15.2-.15.1-.05.15-.05.25-.05h.1c.2,0,.35.05.55.05,1,0,1.55-.3,1.75-.4l-1-1.25c.1-.05.4-.2.45-.2.1-.05.3-.15.5-.2.4-.1.95-.25,1.6-.45,1.3-.4,3.09-1.1,4.89-2.1,3.54-1.95,7.03-4.39,10.53-5.24.85-.2,1.7-.3,2.49-.3.95,0,1.8.1,2.44.25.65.15,1.4.7,2.15,1.45.8.75,1.6,1.65,2.29,2.39.8.9,1.5,1.5,1.8,1.75.1.1.15.15.15.15,0,0,.1.1.3.2.2.1.45.3.7.45.55.35,1.25.65,1.85.8-.05-.2-.3-1.5.25-1.25.25.1.35.35.55.55.25.2.45.4.75.6.4.3.9.5,1.3.5.15,0,.25-.05.4-.1-.25-.3-.45-.55-.45-.55,0,0-.1-.1-.1-.2s.05-.15.15-.2c.1-.05.25-.1.45-.1h1.05c.6,0,1.4-.05,2.1-.15,1-.15,1.85-.45,2.2-.6.1-.05.2-.05.2-.05,0,0,.25-.1.55-.1.15,0,.3.05.45.1.2.15.35.35.45.6s.2.5.25.6c.3.7.9,1.5.9,2.84,0,.2,0,.4-.05.6-.05.35-.15,1.1-.5,1.65-.65.9-1.3.95-1.4.95h-.35c-.1,0-.25,0-.4-.05-.45-.1-.9-.3-1.25-.3-.1,0-.2,0-.3.05-.4.2-.45.45-.5.75,0,.3.15.6.2.7h0s0,.05.05.1.1.15.15.25c.15.2.4.35.8.35h.15c.3-.05.65-.2.85-.45.25-.2.45-.45.5-.55l.05-.05.6-.85s.05-.05.05-.1c.05-.05.1-.1.2-.1.05,0,.1,0,.15.05.1.05.15.15.15.25,0,.05,0,.1-.05.15,0,.05-.05.1-.05.1,0,0-.05.1-.15.15-.05.1-.15.2-.25.3-.2.25-.35.45-.35.45v.15s0,.15.15.25c.15.15.3.35.45.5.1.15.2.3.4.35.4.1.8-.35,1-.6.2-.2.4-.45.45-.7.15-.4.15-.8.15-1.15v-.8s0-.1.05-.2c.05-.05.1-.1.2-.15h.05c.15,0,.25.1.25.15.05.05.05.15.05.15v1.2c0,.3-.05.6-.1.75v.1s0,.1.05.1c0,0,.05.05.1.05.1.05.15.05.2.05l1.45-.05h0s.25,0,.4-.1.3-.3.35-.65v-.2c0-.3-.1-.5-.2-.6-.3-.15-.4-.25-.5-.4ZM68.05,31.49c-.3-.05-.7-.15-1.05-.35-.7-.4-1.15-1.25-1.15-1.85,0-.65.4-1.55,1-2.2.45-.45.9-.85,1.3-1.1,0,0-1.65-1.65-1.8-1.8-.55-.45-1.1-.9-1.8-1.1-.75-.2-1.45.05-2.1.35-.4.2-.85.4-1.25.65-1.6,1-2.39,2.84-2.64,3.49.05-.05.15-.1.25-.2.25-.2.55-.4.75-.45.05,0,.15-.05.2-.05.15,0,.25.05.3.15s.05.2.05.25c0,.15-.05.25-.05.25,0,0-.05.1-.05.25-.05.15-.1.35-.15.6-.1.4-.2.9-.2,1.4.3-.45.65-.8.65-.85l.05-.05s.1-.05.2-.05c.05,0,.1,0,.15.05s.05.1.1.15v.2c0,.6-.15,1.25.2,1.8.3.5.45.9.2,1.45-.2.45-.7.85-1.1,1.15-.25.15-.55.3-.95.3-.35.05-.9,0-1.35.15-.6.2-1.1.65-1.7.8-.2.05-.35.05-.55.05-.7,0-1.55-.2-2.05-.75-.25-.3-.35-.6-.35-.85,0-.75.65-1.4.7-1.45l.05-.05s.05-.1.05-.15v-.05s-.05-.05-.15-.05h-1.85s-.4,0-.65.25l-.05.05s-.05.05-.1.1c-.05.1-.15.25-.25.45-.1.25-.05.65-.1,1.15-.1.45-.35,1-.4,1.35v.2c0,.5.2.9.4,1.15.6.85,1.75,1.35,2.79,1.7,1.05.3,2.05.45,2.44.5h.15c.15-.05,1.8-.5,2.34-.6.55-.1,1.95-.25,2.54-.35l-.9-.45s-.05-.05-.1-.1c-.05-.05-.1-.15-.1-.25,0-.05,0-.1.05-.15.05-.1.1-.15.15-.15.05-.05.15-.05.2-.05h.15s.25.05.55.05c.35,0,.8.05,1.25.05.35,0,.7,0,1-.05.75-.1,1.15-.4,1.3-.6-.05,0-.1,0-.15-.05-.15-.05-.3-.1-.4-.1-.15-.05-.35-.15-.45-.25-.05-.05-.1-.05-.15-.1s-.1-.15-.1-.25v-.05s.05-.1.1-.15c.05-.05.1-.05.15-.1.1-.05.2-.05.2-.05,0,0,.3-.05.65-.1s.8-.15,1.15-.3c.5-.2,1.05-.6,1.3-.75-.1-.05-.2-.1-.3-.15-.25-.1-.55-.25-.75-.45,0,0-.05-.05-.1-.1-.05-.05-.1-.15-.1-.25v-.1s.05-.1.1-.1c.05-.05.1-.05.15-.05.1-.05.2-.05.2-.05,0,0,.1,0,.2-.05.15-.05.3-.05.5-.1.4-.1.9-.25,1.2-.4.2-.1.3-.2.35-.3h-.05s-.15.05-.3,0ZM46.89,35.68c-.15.2-.25.35-.3.5.05-.05.1-.05.15-.1.35-.3.7-.4.95-.45,0-.1.05-.25.05-.3v-.05h0c.05-.1.05-.2.1-.25-.45.1-.75.35-.95.65ZM50.29,37.17c-.1.05-.2.15-.25.2s-.1.1-.15.15c-.05.05-.05.1-.1.15,0,.05-.05.15-.05.25,0,.15.05.3.15.45s.3.3.6.45c.25.1.45.15.65.15.35,0,.55-.15.7-.35.1-.15.2-.35.25-.5-.6-.25-1.15-.6-1.6-1.05,0,0-.1.05-.2.1ZM50.09,36.53c-.2-.3-.4-.75-.4-1.35v-.25h0c-.2,0-.45-.05-.65-.05h-.3c-.1,0-.15,0-.2.1-.05.05-.15.2-.25.5-.05.15-.1.4-.1.6,0,.1,0,.2.05.25.05.1.1.15.2.2.5.2.85.25,1.1.25h.05s.2,0,.25-.05c.2-.05.25-.15.25-.2ZM49.34,38.12c-.35.45-.4.95-.4,1.25v.05s.05-.1.1-.15c.1-.25.25-.45.4-.55-.05-.15-.1-.3-.1-.5-.05,0,0-.05,0-.1ZM25.99,11.13c.45.35.95.6,1.45.75s1.05.2,1.5.2c1,0,1.9-.2,2.79-.35.9-.15,1.8-.3,2.69-.3s1.8.2,2.59.8c-.7-.65-1.6-1-2.54-1.15-.95-.15-1.9-.1-2.79-.05s-1.85.1-2.69,0-1.65-.4-2.15-.95l-.05-.05c-.3-.25-.75-.2-.95.1-.2.3-.15.75.15,1h0Z"/>
  <path class="cls-3" d="M28.49,106.87c.15-.8.3-1.65.5-2.39h0c1.55.85,4.09,1.3,7.03,1.8,3.84.7,8.38,1.5,11.57,3.39-.8-.3-1.8-.65-2.99-1-4.09-1.1-6.14-1-8.18-.95-2,.05-4.04.15-7.93-.85ZM74.18,107.96c-4.14.9-6.29.8-8.38.75-2.15-.1-4.19-.15-8.33.8-1.55.35-2.69.65-3.54,1,1-.25,2.29-.45,3.99-.65,4.34-.45,6.49-.15,8.58.15,2,.3,4.04.6,8.08.2-.15-.8-.3-1.5-.4-2.24ZM54.88,109.61c.8-.3,1.8-.65,2.99-1,4.09-1.1,6.14-1,8.18-.95,1.95.1,3.99.15,7.88-.85-.15-.8-.3-1.65-.5-2.39h0c-1.55.85-4.09,1.3-7.03,1.8-3.79.7-8.33,1.5-11.52,3.39ZM36.67,108.71c-2.1.05-4.24.15-8.38-.75-.15.75-.25,1.45-.35,2.2,4.04.4,6.09.1,8.08-.2,2.1-.3,4.19-.6,8.58-.15,1.7.2,2.99.4,3.99.65-.9-.3-2.05-.65-3.54-1-4.24-.9-6.24-.85-8.38-.75ZM33.47,90.6l-4.24,12.72c3.54,2.29,16.61,1.75,21.55,7.53v-13.52c-1.3-5.79-13.77-4.44-17.31-6.73ZM68.94,90.6c-3.54,2.29-16.01.95-17.31,6.73v13.52c4.89-5.84,17.96-5.24,21.55-7.53l-4.24-12.72Z"/>
  <g>
    <path class="cls-3" d="M10.88,56.68l.6,1c.25.4.65.65,1.15.65h.05c-.25.5-.45,1.2-.5,2.05v.5c0,.4,0,1.05-.15,1.35-.05.1-.2.25-.3.4-.3.3-.75.8-.5,1.5h0c.25.7.9.85,1.3.9.15.05.35.05.45.15.3.15.65.65.9,1,.1.15.2.3.3.4.6.75,1.2,1.25,1.9,1.5-.5.25-.8.85-.65,1.45l.25,1.15c.15.6.65,1.05,1.3,1.05.1,0,.2,0,.3-.05l1.15-.25c.5-.1.85-.45,1-.9.45.45,1.05.8,1.8,1.1.15.05.3.1.45.15.4.15,1,.3,1.25.55.1.1.2.25.25.4.2.35.55.95,1.3.95h0c.75,0,1.1-.6,1.3-.95.1-.15.15-.3.25-.4.2-.25.85-.45,1.25-.55.15-.05.35-.1.45-.15.9-.35,1.55-.75,2-1.3.05.2.15.4.25.6.2.25.55.45.9.5l1.15.1h.15c.7,0,1.25-.5,1.3-1.2l.1-1.15c.05-.35-.05-.7-.3-.95-.1-.1-.15-.2-.25-.25.55-.3,1.1-.75,1.6-1.4.1-.1.2-.25.3-.4.25-.35.6-.85.9-1,.15-.05.3-.1.45-.15.4-.1,1.1-.25,1.3-.95h0c.2-.7-.25-1.2-.5-1.5-.1-.15-.25-.25-.3-.4-.15-.3-.15-.9-.15-1.35v-.5c-.05-1.05-.3-1.8-.65-2.29h.15c.5,0,1-.3,1.2-.8l.45-1.05c.15-.3.15-.7,0-1-.15-.35-.35-.6-.7-.75l-1.05-.45c-.15-.05-.35-.1-.55-.1-.3,0-.55.1-.8.25-.1-.6-.35-1.3-.8-1.95-.1-.15-.2-.25-.3-.4-.25-.35-.65-.85-.65-1.15v-.5c.05-.4.1-1.1-.45-1.55l-.1.1h0l.1-.1c-.2-.15-.45-.25-.7-.25-.35,0-.6.1-.9.25-.15.05-.3.15-.45.15h-.15c-.35,0-.8-.15-1.2-.3-.15-.05-.3-.1-.45-.15-.55-.15-1.05-.25-1.5-.25-.25,0-.6.05-.9.1.1-.2.15-.4.15-.65,0-.35-.15-.65-.45-.9l-.85-.8c-.25-.2-.55-.35-.9-.35s-.75.15-1,.45l-.8.85c-.35.35-.4.9-.25,1.3-.25-.05-.45-.05-.65-.05-.45,0-.95.1-1.5.25-.15.05-.3.1-.45.15-.4.15-.85.3-1.2.3h-.15c-.15-.05-.3-.1-.45-.15-.25-.1-.55-.25-.9-.25-.25,0-.5.1-.7.25h0c-.6.45-.5,1.1-.5,1.55,0,.15.05.35.05.5-.05.3-.4.85-.65,1.15-.1.15-.2.25-.3.4-.55.8-.8,1.55-.85,2.24-.25-.25-.55-.35-.9-.35-.25,0-.45.05-.65.2l-1,.6c-.3.2-.5.45-.6.8-.05.4,0,.75.15,1.05"/>
    <path class="cls-3" d="M24.25,54.14c1.3,0,2.39.95,2.64,2.15h.35c1.15,0,2.2.75,2.54,1.85.4,1.25-.15,2.54-1.25,3.19.25.5.3,1.05.25,1.6-.1.7-.5,1.35-1.1,1.75-.45.35-1,.5-1.6.5-.7,0-1.35-.25-1.8-.7-.5.45-1.15.75-1.85.75-.55,0-1.1-.2-1.6-.5-1.05-.75-1.4-2.15-.85-3.29-.5-.25-.85-.65-1.1-1.15-.35-.65-.4-1.35-.15-2.05.35-1.1,1.4-1.85,2.54-1.85h.3c.1-.55.35-1.05.75-1.4.5-.6,1.2-.85,1.9-.85"/>
    <path class="cls-1" d="M24.59,54.14c1.15.15,2.05,1,2.29,2.15h.35c1.05,0,2,.6,2.44,1.55.9-.25,1.7-.65,2.2-.9,2.15-1.05,2.29-2.44,1.15-4.14-.35-.5-1.05-1.25-1.15-2.05-.05-.55.15-1.15-.05-1.3h0c-.2-.15-.7.25-1.25.35-.75.15-1.7-.3-2.29-.45-1.95-.55-3.19.05-3.54,2.39-.05.55-.2,1.45-.15,2.39M24.05,49.2c.1.1.3.1.4,0l.75-1.25c.1-.1.1-.3,0-.4l-.85-.8c-.1-.1-.3-.1-.4,0l-.8.85c-.1.1-.1.3,0,.4l.9,1.2ZM16.76,56.93c.5.25,1.25.65,2.15.85.45-.9,1.4-1.5,2.39-1.5h.3c.1-.55.35-1.05.75-1.45.45-.45,1.05-.75,1.7-.8.05-.95-.1-1.8-.15-2.34-.35-2.34-1.65-2.94-3.54-2.39-.6.15-1.55.6-2.29.45-.55-.1-1.05-.5-1.25-.35s0,.75-.05,1.3c-.1.75-.8,1.55-1.15,2.05-1.1,1.75-.95,3.14,1.15,4.19M11.77,56.18l.6,1c.1.15.25.2.4.1l1.35-.5c.15-.1.2-.25.1-.4l-.95-1.1c-.1-.15-.25-.2-.4-.1l-1,.6c-.15.05-.2.25-.1.4M34.57,56.68l1.4.35c.15.05.3,0,.4-.15l.45-1.05c.05-.15,0-.3-.15-.4l-1.05-.45c-.15-.05-.3,0-.4.15l-.8,1.2c-.1.1,0,.3.15.35M18.26,68.6c-.05-.15-.2-.25-.35-.25l-1.3.6c-.15.05-.25.2-.25.35l.25,1.15c.05.15.2.25.35.25l1.15-.25c.15-.05.25-.2.25-.35l-.1-1.5ZM35.52,60.42c-.1-2-1.05-3.04-3.34-2.64-.55.1-1.4.25-2.29.55.3,1.15-.25,2.39-1.3,2.94.25.5.3,1.05.25,1.6-.1.6-.4,1.15-.8,1.55.5.75,1.1,1.3,1.45,1.7,1.65,1.7,3.04,1.4,4.29-.15.35-.45.9-1.4,1.6-1.7.55-.25,1.15-.2,1.2-.45h0c.1-.25-.45-.6-.75-1.05-.4-.7-.3-1.75-.3-2.34M20.05,61.37c-.5-.25-.85-.65-1.1-1.15-.3-.6-.4-1.25-.2-1.9-.85-.3-1.65-.45-2.2-.55-2.34-.4-3.29.65-3.34,2.64,0,.6.1,1.65-.3,2.29-.3.5-.8.85-.75,1.05h0c.1.25.7.2,1.2.45.7.3,1.2,1.25,1.6,1.7,1.25,1.6,2.64,1.85,4.29.15.35-.35.95-.95,1.45-1.65-.9-.75-1.15-2-.65-3.04M32.23,68.7l-1.4-.4c-.15,0-.3.1-.35.25l.1,1.45c0,.15.1.3.25.35l1.15.1c.15,0,.3-.1.3-.25l.1-1.15c.1-.2,0-.3-.15-.35M28.73,66.66c1.1,2.1.4,3.34-1.5,4.04-.55.2-1.6.4-2.1,1-.4.45-.55,1.05-.8,1.05s-.4-.6-.8-1.05c-.5-.55-1.55-.8-2.1-1-1.9-.7-2.59-1.9-1.5-4.04.25-.45.6-1.15,1.1-1.85.4.25.9.4,1.4.4.7,0,1.35-.25,1.85-.75.5.45,1.15.7,1.8.7.5,0,1-.15,1.4-.4.65.7,1,1.4,1.25,1.9"/>
    <path class="cls-1" d="M20.8,60.62c.15.05.3.05.45.1h0c.1,0,.15.05.2.1.1.15.05.3-.05.4h0c-.1.1-.2.2-.3.3-.55.75-.4,1.8.35,2.34.75.55,1.8.4,2.34-.35.1-.1.15-.25.2-.4h0c.05-.1.1-.15.2-.15.15-.05.3,0,.35.15h0c.05.1.1.25.2.35.55.75,1.6.9,2.34.35s.9-1.6.35-2.34c-.1-.1-.2-.25-.3-.35h0s-.1-.15-.1-.25c0-.15.1-.3.25-.3h0c.15,0,.25-.05.4-.1.9-.3,1.35-1.25,1.1-2.1-.3-.9-1.25-1.35-2.1-1.1-.15.05-.3.1-.4.2h0s-.15.05-.25.05c-.15-.05-.25-.2-.2-.35h0c.05-.15.05-.25.05-.4,0-.95-.75-1.7-1.7-1.7s-1.7.75-1.7,1.7c0,.15,0,.3.05.45h0c0,.1,0,.15-.05.25-.1.15-.25.15-.4.1h0c-.1-.05-.25-.15-.35-.15-.9-.3-1.85.2-2.1,1.1-.25.85.25,1.8,1.15,2.1"/>
    <path class="cls-3" d="M22.85,59.92c0-.75.6-1.3,1.3-1.3.75,0,1.3.6,1.3,1.3,0,.75-.6,1.3-1.3,1.3s-1.3-.55-1.3-1.3"/>
  </g>
  <g>
    <path class="cls-3" d="M91.54,56.68l-.6,1c-.25.4-.65.65-1.15.65h-.05c.25.5.45,1.2.5,2.05v.5c0,.4,0,1.05.15,1.35.05.1.2.25.3.4.3.3.75.8.5,1.5h0c-.25.7-.9.85-1.3.9-.15.05-.35.05-.45.15-.3.15-.65.65-.9,1-.1.15-.2.3-.3.4-.6.75-1.2,1.25-1.9,1.5.5.25.8.85.65,1.45l-.25,1.15c-.15.6-.65,1.05-1.3,1.05-.1,0-.2,0-.3-.05l-1.15-.25c-.5-.1-.85-.45-1-.9-.45.45-1.05.8-1.8,1.1-.15.05-.3.1-.45.15-.4.15-1,.3-1.25.55-.1.1-.2.25-.25.4-.2.35-.55.95-1.3.95h0c-.75,0-1.1-.6-1.3-.95-.1-.15-.15-.3-.25-.4-.2-.25-.85-.45-1.25-.55-.15-.05-.35-.1-.45-.15-.9-.35-1.55-.75-2-1.3-.05.2-.15.4-.25.6-.2.25-.55.45-.9.5l-1.15.1h-.15c-.7,0-1.25-.5-1.3-1.2l-.1-1.15c-.05-.35.05-.7.3-.95.1-.1.15-.2.25-.25-.55-.3-1.1-.75-1.6-1.4-.1-.1-.2-.25-.3-.4-.25-.35-.6-.85-.9-1-.15-.05-.3-.1-.45-.15-.4-.1-1.1-.25-1.3-.95h0c-.2-.7.25-1.2.5-1.5.1-.15.25-.25.3-.4.15-.3.15-.9.15-1.35v-.5c.05-1.05.3-1.8.65-2.29h-.15c-.5,0-1-.3-1.2-.8l-.45-1.05c-.15-.3-.15-.7,0-1,.15-.35.35-.6.7-.75l1.05-.45c.15-.05.35-.1.55-.1.3,0,.55.1.8.25.1-.6.35-1.3.8-1.95.1-.15.2-.25.3-.4.25-.35.65-.85.65-1.15v-.5c-.05-.4-.1-1.1.45-1.55l.1.1h0l-.1-.1c.2-.15.45-.25.7-.25.35,0,.6.1.9.25.15.05.3.15.45.15h.15c.35,0,.8-.15,1.2-.3.15-.05.3-.1.45-.15.55-.15,1.05-.25,1.5-.25.25,0,.6.05.9.1-.1-.2-.15-.4-.15-.65,0-.35.15-.65.45-.9l.85-.8c.25-.2.55-.35.9-.35s.75.15,1,.45l.8.85c.35.35.4.9.25,1.3.25-.05.45-.05.65-.05.45,0,.95.1,1.5.25.15.05.3.1.45.15.4.15.85.3,1.2.3h.15c.15-.05.3-.1.45-.15.25-.1.55-.25.9-.25.25,0,.5.1.7.25h0c.6.45.5,1.1.5,1.55,0,.15-.05.35-.05.5.05.3.4.85.65,1.15.1.15.2.25.3.4.55.8.8,1.55.85,2.24.25-.25.55-.35.9-.35.25,0,.45.05.65.2l1,.6c.3.2.5.45.6.8.05.4,0,.75-.15,1.05"/>
    <path class="cls-3" d="M78.17,54.14c-1.3,0-2.39.95-2.64,2.15h-.35c-1.15,0-2.2.75-2.54,1.85-.4,1.25.15,2.54,1.25,3.19-.25.5-.3,1.05-.25,1.6.1.7.5,1.35,1.1,1.75.45.35,1,.5,1.6.5.7,0,1.35-.25,1.8-.7.5.45,1.15.75,1.85.75.55,0,1.1-.2,1.6-.5,1.05-.75,1.4-2.15.85-3.29.5-.25.85-.65,1.1-1.15.35-.65.4-1.35.15-2.05-.35-1.1-1.4-1.85-2.54-1.85h-.3c-.1-.55-.35-1.05-.75-1.4-.5-.6-1.2-.85-1.9-.85"/>
    <path class="cls-1" d="M77.82,54.14c.05-.95-.1-1.85-.15-2.39-.35-2.34-1.65-2.94-3.54-2.39-.6.15-1.55.6-2.29.45-.55-.1-1.05-.5-1.25-.35h0c-.2.15,0,.75-.05,1.3-.1.75-.8,1.55-1.15,2.05-1.1,1.65-.95,3.04,1.15,4.14.5.25,1.3.65,2.2.9.45-.95,1.4-1.55,2.44-1.55h.35c.2-1.1,1.15-2,2.29-2.15M79.22,48.05c.1-.1.15-.3,0-.4l-.8-.85c-.1-.1-.3-.15-.4,0l-.85.8c-.1.1-.15.3,0,.4l.75,1.25c.1.1.3.15.4,0l.9-1.2ZM85.66,56.93c2.15-1.05,2.29-2.44,1.15-4.14-.35-.5-1.05-1.25-1.15-2.05-.05-.55.15-1.15-.05-1.3-.2-.15-.7.25-1.25.35-.75.15-1.7-.3-2.29-.45-1.95-.55-3.19.05-3.54,2.39-.1.55-.2,1.4-.15,2.34.65.05,1.25.3,1.7.8.4.4.65.9.75,1.45h.3c1.05,0,1.95.6,2.39,1.5.9-.25,1.65-.65,2.15-.9M90.64,56.18c.1-.15.05-.3-.1-.4l-1-.6c-.15-.1-.3-.05-.4.1l-.95,1.1c-.1.15-.05.3.1.4l1.35.5c.15.1.3.05.4-.1l.6-1M67.85,56.68c.15-.05.2-.25.15-.4l-.8-1.2c-.05-.15-.25-.2-.4-.15l-1.05.45c-.15.05-.2.25-.15.4l.45,1.05c.05.15.25.2.4.15l1.4-.3M84.06,70.05c-.05.15.05.3.25.35l1.15.25c.15.05.3-.05.35-.25l.25-1.15c.05-.15-.05-.3-.25-.35l-1.35-.55c-.15-.05-.3.05-.35.25l-.05,1.45ZM66.9,60.42c0,.6.1,1.65-.3,2.29-.3.5-.8.85-.75,1.05h0c.1.25.7.2,1.2.45.7.3,1.2,1.25,1.6,1.7,1.25,1.6,2.64,1.85,4.29.15.35-.35.95-.95,1.45-1.7-.45-.4-.7-.95-.8-1.55-.1-.55,0-1.1.25-1.6-1.05-.6-1.55-1.8-1.3-2.94-.9-.35-1.75-.5-2.29-.55-2.34-.35-3.29.7-3.34,2.69M82.36,61.37c.5,1.05.25,2.29-.6,3.09.5.7,1.05,1.3,1.45,1.65,1.65,1.7,3.04,1.4,4.29-.15.35-.45.9-1.4,1.6-1.7.55-.25,1.15-.2,1.2-.45h0c.1-.25-.45-.6-.75-1.05-.4-.65-.25-1.7-.3-2.29-.1-2-1.05-3.04-3.34-2.64-.5.1-1.35.2-2.2.55.15.65.1,1.3-.2,1.9-.25.45-.65.85-1.15,1.1M70.19,68.7c-.15,0-.3.15-.25.3l.1,1.15c0,.15.15.3.3.25l1.15-.1c.15,0,.3-.15.25-.35l.1-1.45c0-.15-.15-.3-.35-.25l-1.3.45M73.68,66.66c.25-.45.6-1.2,1.15-1.9.45.25.9.4,1.4.4.7,0,1.35-.25,1.8-.7.5.45,1.15.75,1.85.75.5,0,.95-.15,1.4-.4.5.7.9,1.4,1.1,1.85,1.1,2.1.4,3.34-1.5,4.04-.55.2-1.6.4-2.1,1-.4.45-.55,1.05-.8,1.05s-.4-.6-.8-1.05c-.5-.55-1.55-.8-2.1-1-1.8-.75-2.49-1.95-1.4-4.04"/>
    <path class="cls-1" d="M81.62,60.62c-.15.05-.3.05-.45.1h0c-.1,0-.15.05-.2.1-.1.15-.05.3.05.4h0c.1.1.2.2.3.3.55.75.4,1.8-.35,2.34-.75.55-1.8.4-2.34-.35-.1-.1-.15-.25-.2-.4h0c-.05-.1-.1-.15-.2-.15-.15-.05-.3,0-.35.15h0c-.05.1-.1.25-.2.35-.55.75-1.6.9-2.34.35s-.9-1.6-.35-2.34c.1-.1.2-.25.3-.35h0s.1-.15.1-.25c0-.15-.1-.3-.25-.3h0c-.15,0-.25-.05-.4-.1-.9-.3-1.35-1.25-1.1-2.1.3-.9,1.25-1.35,2.1-1.1.15.05.3.1.4.2h0s.15.05.25.05c.15-.05.25-.2.2-.35h0c-.05-.15-.05-.25-.05-.4,0-.95.75-1.7,1.7-1.7s1.7.75,1.7,1.7c0,.15,0,.3-.05.45h0c0,.1,0,.15.05.25.1.15.25.15.4.1h0c.1-.05.25-.15.35-.15.9-.3,1.85.2,2.1,1.1.2.85-.25,1.8-1.15,2.1"/>
    <path class="cls-3" d="M79.52,59.92c0-.75-.6-1.3-1.3-1.3-.75,0-1.3.6-1.3,1.3,0,.75.6,1.3,1.3,1.3.75,0,1.3-.55,1.3-1.3"/>
  </g>
  <g>
    <path class="cls-3" d="M91.49,86.31c-2.44.7-5.39,1.15-9.63,1.15-3.74,0-6.49-.4-8.78-.95-1.7-.4-3.19-.95-4.59-1.5-2.15-.85-4.24-1.8-6.93-2.54s-5.94-1.25-10.33-1.25c-3.94,0-6.93.4-9.43,1-1.9.45-3.49,1.05-4.94,1.65-2.24.9-4.19,1.8-6.63,2.49-2.44.7-5.39,1.15-9.63,1.15-3.74,0-6.49-.4-8.78-.95-1.6-.4-2.99-.9-4.34-1.4.5,1.15,1.05,2.24,1.6,3.39.4.1.8.25,1.2.35,2.69.75,5.94,1.25,10.33,1.25,3.94,0,6.93-.4,9.43-1,1.9-.45,3.49-1.05,4.94-1.65,2.24-.9,4.19-1.8,6.63-2.44,2.44-.7,5.39-1.15,9.63-1.15,3.74,0,6.49.4,8.78.95,1.7.4,3.19.95,4.59,1.5,2.15.85,4.24,1.8,6.93,2.54s5.94,1.25,10.33,1.25c3.94,0,6.93-.4,9.43-1,.75-.2,1.4-.4,2.1-.6.55-1.15,1.1-2.24,1.6-3.39-1.15.4-2.24.8-3.49,1.15Z"/>
    <path class="cls-3" d="M81.86,82.17c-3.74,0-6.49-.4-8.78-.95-1.7-.4-3.19-.95-4.59-1.5-2.15-.85-4.24-1.8-6.93-2.54s-5.94-1.25-10.33-1.25c-3.94,0-6.93.4-9.43,1-1.9.45-3.49,1.05-4.94,1.65-2.24.9-4.19,1.8-6.63,2.44-2.44.7-5.39,1.15-9.63,1.15-3.74,0-6.49-.4-8.78-.95-1.7-.4-3.19-.95-4.59-1.5-.75-.3-1.5-.6-2.29-.95.4,1.1.85,2.24,1.3,3.39,1.25.5,2.54,1,4.04,1.4,2.69.75,5.94,1.25,10.33,1.25,3.94,0,6.93-.4,9.43-1,1.9-.45,3.49-1.05,4.94-1.65,2.24-.9,4.19-1.8,6.63-2.44,2.44-.7,5.39-1.15,9.63-1.15,3.74,0,6.49.4,8.78.95,1.7.4,3.19.95,4.59,1.5,2.15.85,4.24,1.8,6.93,2.54s5.94,1.25,10.33,1.25c3.94,0,6.93-.4,9.43-1,1.85-.45,3.44-1.05,4.94-1.6.45-1.15.9-2.29,1.3-3.39-2,.8-3.79,1.6-6.04,2.2-2.49.65-5.44,1.15-9.63,1.15Z"/>
    <path class="cls-3" d="M4.09,76.19c1.9.8,3.84,1.6,6.19,2.29,2.69.75,5.94,1.25,10.33,1.25,3.94,0,6.93-.4,9.43-1,1.9-.45,3.49-1.05,4.94-1.65,2.24-.9,4.19-1.8,6.63-2.44,2.44-.7,5.39-1.15,9.63-1.15,3.74,0,6.49.4,8.78.95,1.7.4,3.19.95,4.59,1.5,2.15.85,4.24,1.8,6.93,2.54s5.94,1.25,10.33,1.25c3.94,0,6.93-.4,9.43-1,1.9-.45,3.49-1.05,4.94-1.65.75-.3,1.45-.6,2.15-.85.35-1.1.65-2.15.95-3.24-.4.15-.8.3-1.2.45-2.24.9-4.19,1.8-6.63,2.44-2.44.7-5.39,1.15-9.63,1.15-3.74,0-6.49-.4-8.78-.95-1.7-.4-3.19-.95-4.59-1.5-2.15-.85-4.24-1.8-6.93-2.54s-5.94-1.25-10.33-1.25c-3.94,0-6.93.4-9.43,1-1.9.45-3.49,1.05-4.94,1.65-2.24.9-4.19,1.8-6.63,2.44-2.44.7-5.39,1.15-9.63,1.15-3.74,0-6.49-.4-8.78-.95-1.7-.4-3.19-.95-4.59-1.5-1.35-.55-2.64-1.1-4.14-1.65.3,1.05.6,2.15,1,3.24Z"/>
  </g>
  <rect class="cls-3" y="41.96" width="102.42" height="1.35"/>
</svg>